<?xml version="1.0" encoding="utf-8"?>
<!-- Generator: Adobe Illustrator 16.0.0, SVG Export Plug-In . SVG Version: 6.00 Build 0)  -->
<!DOCTYPE svg PUBLIC "-//W3C//DTD SVG 1.1//EN" "http://www.w3.org/Graphics/SVG/1.1/DTD/svg11.dtd">
<svg version="1.1" id="Layer_1" xmlns="http://www.w3.org/2000/svg" xmlns:xlink="http://www.w3.org/1999/xlink" x="0px" y="0px"
	 width="667.74px" height="299.884px" viewBox="0 0 667.74 299.884" enable-background="new 0 0 667.74 299.884"
	 xml:space="preserve">
<rect x="124.169" y="53.375" fill="#991B1E" width="8.231" height="47.194"/>
<rect x="203.72" y="53.375" fill="#991B1E" width="8.231" height="47.194"/>
<rect x="35.661" y="53.375" fill="#991B1E" width="8.231" height="47.194"/>
<rect x="150.687" y="33.139" fill="#991B1E" width="8.23" height="87.541"/>
<rect x="177.203" y="33.139" fill="#991B1E" width="8.231" height="87.541"/>
<rect x="9.144" y="33.139" fill="#991B1E" width="8.231" height="87.541"/>
<rect x="455.792" y="53.375" fill="#991B1E" width="8.23" height="47.194"/>
<rect x="623.851" y="53.375" fill="#991B1E" width="8.23" height="47.194"/>
<rect x="535.343" y="53.375" fill="#991B1E" width="8.23" height="47.194"/>
<rect x="482.309" y="33.139" fill="#991B1E" width="8.23" height="87.541"/>
<rect x="508.827" y="33.139" fill="#991B1E" width="8.232" height="87.541"/>
<rect x="650.366" y="33.139" fill="#991B1E" width="8.23" height="87.541"/>
<path fill="#81C341" d="M415.673,62.57c-0.01,0.015-0.02,0.029-0.029,0.044l0.029,0.045V62.57z"/>
<path fill="#046799" d="M4.206,153.457c38.453-1.229,60.835-33.431,79.825-62.724l0.066-0.099c-0.021-0.031-0.043-0.063-0.065-0.095
	l-7.081-10.291c-0.729-1.123-1.463-2.266-2.2-3.416l-6.543,9.816C51.811,111.632,31.832,137.104,0,136.392v17.068
	C1.386,153.495,2.784,153.502,4.206,153.457z"/>
<path fill="#339967" d="M583.841,62.723l9.318,13.896c18.266-27.059,39.625-58.543,74.58-59.577v-17.05
	C628.48,0.885,604.156,32.879,583.841,62.723z"/>
<path fill="#81C341" d="M415.748,62.77l-0.074-0.11v0.218C415.699,62.842,415.722,62.806,415.748,62.77z"/>
<path fill="#046799" d="M408.591,80.297c-0.727-1.119-1.457-2.254-2.191-3.396c-17.498,27.691-37.285,59.236-72.519,59.571
	c-35.138-0.333-55.049-31.851-72.573-59.492c-3.125-4.928-6.173-9.733-9.218-14.216l-0.002-0.051
	c-0.146-0.226-0.294-0.452-0.441-0.678C232.234,32.128,209.192-0.073,169.775-0.05c-40.278-0.023-65.004,32.494-85.616,62.773
	l9.318,13.897c19.393-28.729,42.272-62.456,81.209-59.419c32.644,2.545,51.427,32.717,67.979,59.093
	c3.174,5.058,6.268,9.977,9.36,14.534c0.021,0.031,0.043,0.064,0.064,0.096c19.303,29.773,42.316,62.06,81.293,62.591v0.023
	c0.155,0,0.306-0.011,0.461-0.012c0.181,0.001,0.356,0.014,0.538,0.014v-0.027c39.089-0.531,61.954-32.902,81.292-62.732
	l0.064-0.095L408.591,80.297z"/>
<path fill="#339967" d="M242.665,76.294c-6.54,10.451-12.934,20.552-19.637,29.214c-16.145,20.863-37.948,35.191-65.301,29.777
	c-26.189-5.182-43.333-28.16-57.644-48.813l-6.606-9.853l-9.318-13.897l-4.183-6.238C60.881,27.471,37.285-0.745,0-0.021v17.068
	c2.135-0.066,4.316-0.023,6.552,0.149c33.224,2.552,51.832,34.088,68.198,59.636c0.737,1.15,1.471,2.293,2.2,3.416l7.081,10.291
	c0.021,0.031,0.043,0.063,0.065,0.095c20.082,29.513,44.108,61.601,83.16,62.821c40.957,1.278,64.72-31.679,84.769-62.626
	C248.933,86.271,245.839,81.352,242.665,76.294z"/>
<path fill="#046799" d="M657.408,135.285c-26.189-5.182-43.332-28.16-57.643-48.813l-6.605-9.854l-9.318-13.896l-4.184-6.238
	c-19.65-29.857-44.063-58.877-83.26-56.376c-37.793,2.412-61.084,33.911-80.65,62.661l6.807,10.289
	c0.836,1.234,1.68,2.488,2.527,3.752l6.625-9.838c17.826-25.725,40.01-52.429,74.527-49.777
	c33.223,2.552,51.83,34.087,68.199,59.636c0.736,1.15,1.471,2.293,2.199,3.416l7.08,10.291c0.021,0.031,0.045,0.063,0.066,0.096
	c20.082,29.513,44.109,61.6,83.158,62.82c0.271,0.009,0.533-0.001,0.803,0.004v-17.042
	C664.388,136.349,660.945,135.985,657.408,135.285z"/>
<path fill="#339967" d="M583.712,90.539l-7.08-10.291c-0.729-1.123-1.463-2.266-2.199-3.416l-6.545,9.816
	c-17.336,26.414-38.666,53.393-73.785,49.375c-32.545-3.724-52.107-34.011-69.021-59.213c-0.848-1.264-1.691-2.518-2.527-3.752
	l-6.807-10.289c-0.025,0.036-0.049,0.072-0.074,0.107v-0.218l-0.029-0.045l-4.025-6.083C393.23,28.592,370.611,0.52,334.382,0.022V0
	c-0.185,0-0.364,0.008-0.548,0.01c-0.152-0.001-0.3-0.011-0.452-0.011v0.019c-38.386,0.505-61.624,30.661-81.735,62.018
	c0.146,0.226,0.295,0.452,0.441,0.678l0.002,0.051c3.045,4.482,6.094,9.288,9.218,14.216c17.31-26.938,36.926-59.56,72.574-59.904
	c35.611,0.344,55.221,32.901,72.518,59.825c0.734,1.143,1.465,2.277,2.191,3.396l7.146,10.39l4.438,6.452
	c20.15,29.021,45.279,57.546,83.713,56.318c38.451-1.229,60.834-33.431,79.824-62.724l0.066-0.098
	C583.757,90.603,583.734,90.57,583.712,90.539z"/>
<path id="path2834" fill="#010101" d="M288.831,51.4l-0.173,0.173v1.707c0,0.469,0.222,0.716,0.692,0.716
	c2.228,0.235,3.733,0.702,4.524,1.434c0.82,0.705,1.616,2.103,2.35,4.155l23.466,49.058c0.498,1.407,1.171,2.126,2.051,2.126
	s1.614-0.719,2.201-2.126l9.496-19.683l9.42,19.683c0.496,1.407,1.197,2.126,2.076,2.126c0.881,0,1.588-0.719,2.178-2.126
	l23.465-48.662c0.732-1.904,1.66-3.359,2.744-4.326c1.084-0.998,2.736-1.54,4.994-1.658c0.498,0,0.768-0.247,0.768-0.716v-1.707
	l-0.197-0.173l-8.309,0.173c-2.346,0-5.641-0.057-9.891-0.173l-0.174,0.173v1.707c0,0.469,0.248,0.716,0.717,0.716l1.434,0.074
	c1.818,0.089,3.082,0.504,3.783,1.237c0.734,0.703,0.789,1.874,0.174,3.486l-19.236,39.438h-0.348l-9.246-18.298l9.617-19.954
	c0.734-1.904,1.635-3.359,2.721-4.326c1.084-0.998,2.762-1.54,5.02-1.658c0.498,0,0.742-0.247,0.742-0.716v-1.707l-0.174-0.173
	l-8.309,0.173c-2.346,0-5.641-0.057-9.891-0.173l-0.173,0.173v1.707c0,0.469,0.224,0.716,0.692,0.716l1.459,0.074
	c1.818,0.089,3.08,0.504,3.783,1.237c0.734,0.703,0.789,1.874,0.174,3.486l-8.036,16.467l-8.655-17.086
	c-0.498-1.349-0.498-2.271,0-2.77c0.528-0.527,1.871-0.941,3.981-1.235l1.533-0.174c0.469-0.088,0.692-0.335,0.692-0.716v-1.707
	l-0.173-0.173l-10.237,0.173c-2.346,0-5.868-0.057-10.558-0.173l-0.173,0.173v1.707c0,0.469,0.222,0.716,0.692,0.716
	c2.228,0.235,3.732,0.702,4.524,1.434c0.82,0.705,1.616,2.103,2.35,4.155l11.72,24.503l-6.899,14.145h-0.347l-20.275-40.058
	c-0.498-1.349-0.498-2.271,0-2.77c0.528-0.527,1.846-0.941,3.957-1.235l1.558-0.174c0.469-0.088,0.692-0.335,0.692-0.716v-1.707
	l-0.173-0.173l-10.237,0.173C297.042,51.573,293.52,51.517,288.831,51.4z"/>
<g>
	<path fill="#494949" d="M132.308,170.07v9.34c-2.413-2.242-4.769-3.786-7.069-4.628c-2.301-0.842-4.432-1.262-6.396-1.262
		c-2.637,0-4.811,0.631-6.521,1.893c-1.712,1.263-2.566,2.903-2.566,4.923c0,2.076,0.771,3.829,2.314,5.26
		c1.542,1.431,3.436,2.791,5.68,4.081c0.673,0.394,1.389,0.8,2.146,1.221s1.528,0.855,2.314,1.304
		c3.084,1.797,5.918,3.984,8.499,6.564c2.58,2.581,3.871,6.143,3.871,10.687c0,4.489-1.515,8.191-4.544,11.108
		c-3.03,2.917-6.873,4.376-11.529,4.376c-3.086,0-5.933-0.421-8.542-1.263c-2.608-0.842-5.12-2.159-7.531-3.955V209.2
		c2.131,2.749,4.488,4.838,7.069,6.269c2.58,1.431,5.272,2.146,8.078,2.146c2.636,0,4.698-0.575,6.185-1.726
		c1.486-1.149,2.454-2.426,2.903-3.828c0.055-0.28,0.112-0.561,0.168-0.842c0.055-0.28,0.084-0.561,0.084-0.842
		c0-2.524-0.955-4.642-2.861-6.354c-1.908-1.71-4.123-3.352-6.647-4.923c-0.505-0.279-0.997-0.574-1.473-0.883
		c-0.478-0.309-0.94-0.603-1.389-0.884c-3.143-1.907-6.003-4.053-8.583-6.438c-2.581-2.384-3.871-5.54-3.871-9.467
		c0-4.656,1.584-8.373,4.754-11.15c3.169-2.777,7.391-4.165,12.665-4.165c2.188,0,4.361,0.336,6.521,1.01
		c2.159,0.673,4.25,1.683,6.27,3.029V170.07z"/>
	<path fill="#494949" d="M169.721,188.246v7.995c-1.683-1.065-3.17-1.865-4.46-2.398c-1.292-0.533-2.554-0.884-3.787-1.052
		c-0.336-0.056-0.688-0.098-1.052-0.127c-0.365-0.027-0.744-0.042-1.136-0.042c-3.423,0-6.2,1.179-8.331,3.534
		c-2.133,2.356-3.198,5.442-3.198,9.257c0,3.928,1.164,6.999,3.492,9.215c2.327,2.217,5.428,3.323,9.299,3.323
		c0.28,0,0.56,0,0.841,0c0.28,0,0.589-0.027,0.926-0.084c1.29-0.111,2.594-0.379,3.913-0.799c1.317-0.421,2.762-0.968,4.333-1.642
		v7.321c-0.898,0.505-2.062,0.913-3.492,1.221s-2.903,0.574-4.418,0.799c-0.618,0.056-1.192,0.098-1.725,0.126
		c-0.534,0.028-1.081,0.043-1.641,0.043c-5.611,0-10.211-1.753-13.801-5.26c-3.591-3.506-5.386-8.036-5.386-13.591
		c0-6.227,1.683-11.177,5.049-14.853c3.366-3.673,7.91-5.512,13.632-5.512c1.515,0,2.875,0.113,4.082,0.337
		c1.206,0.225,2.369,0.534,3.492,0.926c0.56,0.168,1.122,0.365,1.683,0.589c0.56,0.225,1.122,0.478,1.683,0.758V188.246z"/>
	<path fill="#494949" d="M185.834,174.95c0,1.292-0.435,2.371-1.304,3.24c-0.87,0.87-1.922,1.305-3.156,1.305
		c-1.234,0-2.286-0.435-3.155-1.305c-0.871-0.869-1.305-1.921-1.305-3.155c0-1.233,0.434-2.285,1.305-3.156
		c0.869-0.869,1.921-1.304,3.155-1.304c1.233,0,2.286,0.435,3.156,1.304c0.869,0.871,1.304,1.923,1.304,3.156V174.95z
		 M185.077,224.178h-7.489v-37.783h7.489V224.178z"/>
	<path fill="#494949" d="M225.738,213.239v7.237c-0.336,0.281-0.688,0.533-1.052,0.757c-0.366,0.225-0.715,0.421-1.052,0.589
		c-1.908,1.123-3.871,1.923-5.891,2.398s-4.376,0.716-7.069,0.716c-5.891,0-10.421-2.033-13.59-6.102
		c-3.17-4.066-4.754-8.709-4.754-13.927c0-5.723,1.641-10.351,4.923-13.885s7.531-5.302,12.749-5.302
		c4.993,0,8.976,1.712,11.95,5.134c2.973,3.422,4.46,8.64,4.46,15.651h-26.592c0.617,3.787,1.991,6.627,4.124,8.521
		c2.131,1.894,4.993,2.84,8.583,2.84c1.683,0,3.352-0.224,5.007-0.673c1.654-0.448,3.295-1.094,4.923-1.936
		c0.56-0.28,1.107-0.589,1.641-0.926c0.533-0.337,1.08-0.673,1.641-1.01V213.239z M219.006,201.458
		c-0.113-2.805-0.955-5.049-2.524-6.732c-1.571-1.683-3.675-2.524-6.312-2.524c-2.861,0-5.147,0.808-6.858,2.42
		c-1.712,1.611-2.819,3.892-3.324,6.837H219.006z"/>
	<path fill="#494949" d="M241.111,191.36h0.168c1.458-1.738,3.183-3.114,5.175-4.124c1.991-1.01,4.024-1.515,6.101-1.515
		c3.59,0,6.634,1.249,9.13,3.745c2.496,2.497,3.745,6.325,3.745,11.486v23.226h-7.489v-23.394c0-2.748-0.66-4.951-1.978-6.606
		c-1.319-1.653-3.128-2.482-5.428-2.482c-0.673,0-1.333,0.071-1.978,0.211c-0.646,0.141-1.277,0.351-1.894,0.631
		c-0.898,0.45-1.796,1.052-2.692,1.81c-0.898,0.757-1.852,1.697-2.861,2.818v27.013h-7.489v-37.783h7.489V191.36z"/>
	<path fill="#494949" d="M302.045,188.246v7.995c-1.683-1.065-3.17-1.865-4.46-2.398c-1.292-0.533-2.554-0.884-3.787-1.052
		c-0.336-0.056-0.688-0.098-1.052-0.127c-0.365-0.027-0.744-0.042-1.136-0.042c-3.423,0-6.2,1.179-8.331,3.534
		c-2.133,2.356-3.198,5.442-3.198,9.257c0,3.928,1.164,6.999,3.492,9.215c2.327,2.217,5.428,3.323,9.299,3.323
		c0.28,0,0.56,0,0.841,0c0.28,0,0.589-0.027,0.926-0.084c1.29-0.111,2.594-0.379,3.913-0.799c1.317-0.421,2.763-0.968,4.334-1.642
		v7.321c-0.898,0.505-2.062,0.913-3.493,1.221c-1.431,0.308-2.903,0.574-4.418,0.799c-0.618,0.056-1.192,0.098-1.725,0.126
		c-0.534,0.028-1.081,0.043-1.641,0.043c-5.611,0-10.211-1.753-13.801-5.26c-3.591-3.506-5.386-8.036-5.386-13.591
		c0-6.227,1.683-11.177,5.049-14.853c3.366-3.673,7.91-5.512,13.632-5.512c1.515,0,2.875,0.113,4.082,0.337
		c1.206,0.225,2.369,0.534,3.492,0.926c0.56,0.168,1.122,0.365,1.683,0.589c0.56,0.225,1.122,0.478,1.683,0.758V188.246z"/>
	<path fill="#494949" d="M340.644,213.239v7.237c-0.338,0.281-0.689,0.533-1.053,0.757c-0.365,0.225-0.715,0.421-1.053,0.589
		c-1.906,1.123-3.871,1.923-5.89,2.398s-4.375,0.716-7.068,0.716c-5.891,0-10.422-2.033-13.59-6.102
		c-3.171-4.066-4.755-8.709-4.755-13.927c0-5.723,1.641-10.351,4.923-13.885s7.531-5.302,12.749-5.302
		c4.992,0,8.975,1.712,11.95,5.134c2.973,3.422,4.459,8.64,4.459,15.651h-26.591c0.617,3.787,1.991,6.627,4.123,8.521
		s4.993,2.84,8.584,2.84c1.683,0,3.352-0.224,5.007-0.673c1.654-0.448,3.295-1.094,4.922-1.936c0.561-0.28,1.107-0.589,1.641-0.926
		s1.08-0.673,1.643-1.01V213.239z M333.911,201.458c-0.113-2.805-0.955-5.049-2.524-6.732c-1.571-1.683-3.675-2.524-6.312-2.524
		c-2.861,0-5.147,0.808-6.858,2.42c-1.712,1.611-2.819,3.892-3.324,6.837H333.911z"/>
	<path fill="#494949" d="M391.3,166.788c6.283,0.057,10.898,1.697,13.844,4.923c2.945,3.227,4.418,7.11,4.418,11.654
		c0,4.489-1.557,8.289-4.67,11.403c-3.115,3.113-8.01,4.67-14.686,4.67h-8.582v24.74h-8.248v-57.391H391.3z M381.625,191.949h9.34
		c3.084,0.057,5.539-0.701,7.363-2.272c1.822-1.569,2.734-3.786,2.734-6.647c0-0.17,0-0.325,0-0.467c0-0.143,0-0.27,0-0.383
		c-0.168-1.982-0.967-3.81-2.398-5.48c-1.43-1.67-3.885-2.506-7.363-2.506h-9.676V191.949z"/>
	<path fill="#494949" d="M421.949,191.36h0.168c1.457-1.738,3.184-3.114,5.174-4.124c1.992-1.01,4.025-1.515,6.102-1.515
		c3.703,0,6.773,1.277,9.215,3.829c2.439,2.554,3.66,6.41,3.66,11.57v23.058h-7.488v-23.394c0-2.748-0.66-4.951-1.979-6.606
		c-1.318-1.653-3.129-2.482-5.428-2.482c-0.674,0-1.334,0.071-1.977,0.211c-0.646,0.141-1.277,0.351-1.895,0.631
		c-0.898,0.45-1.795,1.052-2.693,1.81c-0.896,0.757-1.85,1.697-2.859,2.818v27.013h-7.49v-57.391h7.49V191.36z"/>
	<path fill="#494949" d="M472.859,185.637c5.945,0.057,10.842,1.894,14.684,5.512c3.842,3.619,5.766,8.233,5.766,13.843
		c0,5.947-1.895,10.759-5.682,14.432c-3.785,3.676-8.709,5.513-14.768,5.513c-5.779,0-10.547-1.879-14.305-5.639
		c-3.76-3.758-5.639-8.526-5.639-14.306c0-5.44,1.92-10.014,5.764-13.717c3.842-3.702,8.568-5.554,14.18-5.554V185.637z
		 M464.023,195.988c-2.301,2.356-3.449,5.358-3.449,9.004c0,3.984,1.135,7.195,3.406,9.636c2.273,2.44,5.203,3.66,8.795,3.66
		c3.982,0,7.123-1.182,9.424-3.546s3.451-5.601,3.451-9.709c0-3.658-1.207-6.682-3.619-9.075c-2.412-2.392-5.498-3.588-9.256-3.588
		C469.24,192.426,466.322,193.631,464.023,195.988z"/>
	<path fill="#494949" d="M509.068,186.395h11.949v6.731h-11.949v19.354c0,1.74,0.379,3.029,1.137,3.871
		c0.756,0.842,1.611,1.403,2.566,1.684c0.279,0.112,0.559,0.183,0.842,0.21c0.279,0.029,0.559,0.042,0.84,0.042
		c1.348,0,2.721-0.238,4.125-0.715c1.4-0.477,2.859-1.164,4.375-2.063v6.9c-0.617,0.394-1.305,0.73-2.063,1.01
		c-0.756,0.282-1.5,0.534-2.229,0.758c-0.898,0.224-1.768,0.406-2.609,0.547c-0.842,0.14-1.57,0.211-2.188,0.211
		c-4.096,0-7.168-1.107-9.215-3.324c-2.049-2.216-3.072-5.035-3.072-8.457v-20.028h-6.563v-0.841l14.053-13.717V186.395z"/>
	<path fill="#494949" d="M545.193,185.637c5.947,0.057,10.842,1.894,14.686,5.512c3.842,3.619,5.764,8.233,5.764,13.843
		c0,5.947-1.893,10.759-5.68,14.432c-3.787,3.676-8.709,5.513-14.77,5.513c-5.777,0-10.547-1.879-14.305-5.639
		c-3.76-3.758-5.639-8.526-5.639-14.306c0-5.44,1.922-10.014,5.766-13.717c3.842-3.702,8.568-5.554,14.178-5.554V185.637z
		 M536.359,195.988c-2.303,2.356-3.451,5.358-3.451,9.004c0,3.984,1.137,7.195,3.408,9.636s5.203,3.66,8.793,3.66
		c3.984,0,7.125-1.182,9.426-3.546c2.299-2.364,3.449-5.601,3.449-9.709c0-3.658-1.207-6.682-3.617-9.075
		c-2.414-2.392-5.5-3.588-9.258-3.588C541.576,192.426,538.658,193.631,536.359,195.988z"/>
</g>
<g>
	<path fill="#676767" d="M208.449,241.653v7.068c-1.795-0.986-3.512-1.828-5.15-2.524c-1.639-0.695-3.288-1.223-4.948-1.582
		c-0.942-0.179-1.885-0.325-2.827-0.438c-0.943-0.111-1.908-0.169-2.895-0.169c-5.251,0-9.616,1.661-13.094,4.982
		c-3.479,3.321-5.217,7.518-5.217,12.589c0,5.161,1.717,9.357,5.15,12.589c3.434,3.231,7.91,4.847,13.431,4.847
		c1.301,0,2.625-0.111,3.972-0.337c1.347-0.224,2.693-0.561,4.039-1.01c1.347-0.447,2.693-0.986,4.04-1.615
		c1.346-0.628,2.669-1.368,3.972-2.222v7.136c-2.245,1.212-4.679,2.188-7.304,2.929s-5.734,1.11-9.324,1.11
		c-6.777,0-12.096-1.693-15.955-5.082c-3.86-3.389-6.44-7.125-7.742-11.209c-0.36-1.121-0.629-2.232-0.808-3.332
		c-0.18-1.1-0.269-2.165-0.269-3.198c0-7.001,2.367-12.791,7.102-17.368c4.735-4.578,10.76-6.867,18.076-6.867
		c2.378,0,4.813,0.303,7.304,0.909c2.491,0.605,5.307,1.56,8.449,2.861V241.653z"/>
	<path fill="#676767" d="M229.042,253.568c4.757,0.046,8.673,1.515,11.748,4.41c3.074,2.895,4.611,6.587,4.611,11.074
		c0,4.757-1.515,8.606-4.544,11.545c-3.03,2.94-6.968,4.409-11.815,4.409c-4.623,0-8.438-1.503-11.444-4.51
		c-3.007-3.007-4.511-6.821-4.511-11.444c0-4.354,1.537-8.012,4.612-10.974c3.073-2.962,6.855-4.443,11.343-4.443V253.568z
		 M221.973,261.848c-1.841,1.886-2.76,4.287-2.76,7.204c0,3.187,0.909,5.756,2.727,7.708c1.817,1.952,4.162,2.928,7.035,2.928
		c3.186,0,5.699-0.945,7.54-2.837c1.84-1.891,2.76-4.479,2.76-7.767c0-2.927-0.966-5.346-2.895-7.26
		c-1.93-1.914-4.399-2.871-7.405-2.871C226.147,258.999,223.813,259.963,221.973,261.848z"/>
	<path fill="#676767" d="M256.898,254.174v3.972c1.57-1.525,3.085-2.659,4.544-3.399c1.458-0.741,2.883-1.111,4.275-1.111
		c1.929,0,3.669,0.461,5.217,1.38c1.548,0.921,2.816,2.278,3.804,4.073c1.301-1.481,2.771-2.76,4.41-3.837
		c1.638-1.077,3.534-1.616,5.688-1.616c3.052,0,5.487,1.077,7.304,3.231c1.818,2.154,2.727,5.027,2.727,8.617v18.917h-5.992v-18.715
		c0-2.244-0.617-3.972-1.851-5.184c-1.235-1.212-2.705-1.818-4.41-1.818h-0.067h-0.067c-0.539,0-1.123,0.125-1.75,0.371
		c-0.629,0.247-1.279,0.595-1.952,1.043c-0.495,0.314-0.988,0.673-1.481,1.077c-0.494,0.404-0.965,0.854-1.414,1.347v21.879h-5.992
		v-18.782c0-2.424-0.539-4.185-1.616-5.285c-1.077-1.099-2.356-1.649-3.837-1.649c-1.033,0-1.964,0.125-2.794,0.371
		c-0.831,0.247-1.649,0.662-2.457,1.245c-0.36,0.27-0.73,0.596-1.111,0.976c-0.382,0.382-0.774,0.798-1.178,1.246v21.879h-5.992
		v-30.227H256.898z"/>
	<path fill="#676767" d="M307.852,283.661v16.224h-5.991v-45.71h10.367c5.521,0.045,9.738,1.38,12.656,4.005
		c2.917,2.626,4.376,6.43,4.376,11.411c0,4.533-1.437,8.236-4.309,11.108c-2.873,2.872-6.553,4.308-11.041,4.308
		c-0.225,0-0.438,0-0.64,0s-0.416-0.022-0.64-0.067c-0.764-0.09-1.526-0.225-2.289-0.403c-0.764-0.179-1.594-0.448-2.491-0.808
		V283.661z M307.852,278.275c0.628,0.314,1.256,0.572,1.885,0.774c0.628,0.201,1.256,0.37,1.885,0.505
		c0.313,0.045,0.628,0.078,0.942,0.101c0.313,0.023,0.628,0.033,0.943,0.033c2.782,0,5.083-0.967,6.9-2.903
		c1.817-1.936,2.726-4.368,2.726-7.295c0-3.151-0.819-5.596-2.457-7.329c-1.639-1.733-4.096-2.601-7.372-2.601h-5.453V278.275z"/>
	<path fill="#676767" d="M360.099,275.649v5.79c-0.27,0.225-0.549,0.427-0.842,0.605c-0.291,0.18-0.572,0.337-0.84,0.472
		c-1.527,0.898-3.098,1.538-4.713,1.918c-1.615,0.381-3.502,0.572-5.656,0.572c-4.711,0-8.336-1.626-10.871-4.88
		c-2.536-3.254-3.804-6.968-3.804-11.142c0-4.578,1.313-8.281,3.938-11.108c2.625-2.827,6.025-4.241,10.199-4.241
		c3.994,0,7.18,1.37,9.559,4.106c2.379,2.738,3.568,6.912,3.568,12.521h-21.273c0.494,3.03,1.592,5.302,3.299,6.816
		c1.705,1.515,3.994,2.272,6.867,2.272c1.346,0,2.682-0.179,4.006-0.539c1.322-0.358,2.635-0.875,3.938-1.548
		c0.447-0.225,0.885-0.472,1.313-0.741c0.426-0.269,0.863-0.538,1.313-0.808V275.649z M354.714,266.224
		c-0.092-2.243-0.764-4.039-2.02-5.386c-1.258-1.346-2.941-2.02-5.049-2.02c-2.289,0-4.119,0.646-5.486,1.936
		c-1.371,1.29-2.256,3.113-2.66,5.47H354.714z"/>
	<path fill="#676767" d="M373.57,254.174h9.56v5.386h-9.56v15.483c0,1.392,0.304,2.424,0.909,3.097s1.29,1.122,2.054,1.347
		c0.224,0.09,0.447,0.146,0.673,0.168c0.224,0.023,0.448,0.033,0.673,0.033c1.077,0,2.177-0.189,3.299-0.571
		c1.121-0.381,2.289-0.932,3.501-1.649v5.52c-0.494,0.314-1.044,0.584-1.649,0.809c-0.606,0.225-1.201,0.427-1.784,0.605
		c-0.719,0.179-1.414,0.325-2.087,0.438c-0.673,0.111-1.257,0.168-1.75,0.168c-3.277,0-5.734-0.886-7.372-2.659
		c-1.639-1.772-2.457-4.027-2.457-6.766V259.56h-5.251v-0.674l11.242-10.973V254.174z"/>
	<path fill="#676767" d="M395.186,245.018c0,1.033-0.349,1.896-1.044,2.592c-0.696,0.696-1.538,1.044-2.524,1.044
		c-0.987,0-1.829-0.348-2.524-1.044c-0.696-0.695-1.044-1.536-1.044-2.524c0-0.986,0.348-1.828,1.044-2.524
		c0.695-0.695,1.537-1.043,2.524-1.043c0.986,0,1.828,0.348,2.524,1.043c0.695,0.696,1.044,1.538,1.044,2.524V245.018z
		 M394.58,284.401h-5.991v-30.227h5.991V284.401z"/>
	<path fill="#676767" d="M409.403,254.174h9.56v5.386h-9.56v15.483c0,1.392,0.304,2.424,0.909,3.097s1.29,1.122,2.054,1.347
		c0.224,0.09,0.447,0.146,0.673,0.168c0.224,0.023,0.448,0.033,0.673,0.033c1.077,0,2.177-0.189,3.299-0.571
		c1.121-0.381,2.289-0.932,3.501-1.649v5.52c-0.494,0.314-1.044,0.584-1.649,0.809c-0.606,0.225-1.201,0.427-1.784,0.605
		c-0.719,0.179-1.414,0.325-2.087,0.438c-0.673,0.111-1.257,0.168-1.75,0.168c-3.277,0-5.734-0.886-7.372-2.659
		c-1.639-1.772-2.457-4.027-2.457-6.766V259.56h-5.251v-0.674l11.242-10.973V254.174z"/>
	<path fill="#676767" d="M431.02,245.018c0,1.033-0.349,1.896-1.044,2.592c-0.696,0.696-1.538,1.044-2.524,1.044
		c-0.987,0-1.829-0.348-2.524-1.044c-0.696-0.695-1.044-1.536-1.044-2.524c0-0.986,0.348-1.828,1.044-2.524
		c0.695-0.695,1.537-1.043,2.524-1.043c0.986,0,1.828,0.348,2.524,1.043c0.695,0.696,1.044,1.538,1.044,2.524V245.018z
		 M430.414,284.401h-5.991v-30.227h5.991V284.401z"/>
	<path fill="#676767" d="M451.97,253.568c4.756,0.046,8.672,1.515,11.747,4.41c3.073,2.895,4.611,6.587,4.611,11.074
		c0,4.757-1.515,8.606-4.544,11.545c-3.029,2.94-6.968,4.409-11.814,4.409c-4.623,0-8.438-1.503-11.445-4.51
		s-4.51-6.821-4.51-11.444c0-4.354,1.536-8.012,4.611-10.974c3.073-2.962,6.854-4.443,11.344-4.443V253.568z M444.901,261.848
		c-1.841,1.886-2.76,4.287-2.76,7.204c0,3.187,0.909,5.756,2.727,7.708s4.162,2.928,7.035,2.928c3.186,0,5.698-0.945,7.539-2.837
		c1.84-1.891,2.761-4.479,2.761-7.767c0-2.927-0.966-5.346-2.895-7.26c-1.931-1.914-4.399-2.871-7.405-2.871
		C449.075,258.999,446.741,259.963,444.901,261.848z"/>
	<path fill="#676767" d="M479.886,258.146h0.135c1.167-1.391,2.547-2.491,4.141-3.299c1.593-0.808,3.22-1.212,4.881-1.212
		c2.871,0,5.307,0.999,7.304,2.996s2.996,5.061,2.996,9.189v18.58h-5.991v-18.715c0-2.198-0.528-3.961-1.582-5.285
		c-1.056-1.323-2.503-1.985-4.343-1.985c-0.538,0-1.066,0.057-1.582,0.168c-0.517,0.112-1.021,0.281-1.515,0.505
		c-0.718,0.359-1.437,0.842-2.154,1.447c-0.718,0.606-1.48,1.358-2.289,2.256v21.609h-5.991v-30.227h5.991V258.146z"/>
</g>
</svg>
